<svg width="23" height="32" viewBox="0 0 23 32" fill="none" xmlns="http://www.w3.org/2000/svg">
<path d="M21.4784 29.9437H20.9155C20.9155 29.9377 20.9128 29.9318 20.9116 29.9261L20.8962 29.8573C20.8863 29.812 20.8757 29.7671 20.8646 29.7226C20.8599 29.7016 20.8547 29.6806 20.8496 29.6597C20.835 29.6009 20.8196 29.5422 20.8038 29.4834L20.7991 29.4666C20.7817 29.4029 20.7635 29.3396 20.7446 29.2765L20.7256 29.2155C20.7126 29.172 20.6988 29.129 20.6862 29.086C20.6787 29.0624 20.6708 29.0392 20.6633 29.016C20.6495 28.9744 20.6352 28.9329 20.6206 28.8917C20.6131 28.87 20.6052 28.8479 20.5977 28.8266C20.5793 28.775 20.5604 28.7237 20.5409 28.6728C20.5366 28.6619 20.533 28.6515 20.5287 28.6406C20.5058 28.5807 20.4817 28.5212 20.4572 28.4617C20.4485 28.44 20.4395 28.4187 20.4304 28.3974C20.4138 28.3599 20.3972 28.3188 20.3802 28.2798L20.3483 28.2076C20.3317 28.1702 20.3147 28.1328 20.2973 28.0953C20.2867 28.0721 20.2756 28.0486 20.2646 28.0254C20.2444 27.9823 20.2251 27.9397 20.2026 27.8974C20.1943 27.8813 20.1868 27.8648 20.1785 27.8483C20.1505 27.7926 20.1217 27.7361 20.0925 27.6822L20.053 27.6122L19.9973 27.5108L19.9539 27.4359C19.9358 27.4045 19.9176 27.373 19.899 27.3416C19.8844 27.3162 19.8694 27.2907 19.8544 27.2668C19.8339 27.2327 19.815 27.1994 19.7925 27.1657L19.7356 27.0744C19.7088 27.0325 19.6819 26.9902 19.6543 26.9487C19.6369 26.9225 19.6196 26.8966 19.6018 26.8708C19.584 26.845 19.5647 26.8154 19.5457 26.7881C19.5268 26.7608 19.5063 26.7335 19.4889 26.7065C19.4715 26.6796 19.4526 26.6553 19.434 26.6317C19.4155 26.6081 19.3946 26.5767 19.3744 26.5493L19.3188 26.4745C19.2793 26.4247 19.243 26.3749 19.2043 26.3248L19.1502 26.2563C19.1273 26.2275 19.1036 26.199 19.0803 26.1706L19.0282 26.1077C19.0041 26.0789 18.9797 26.0505 18.9552 26.0217L18.9039 25.9625L18.8273 25.8757L18.7819 25.8256C18.6876 25.7219 18.5908 25.6197 18.4918 25.5202L18.4483 25.4764L18.3575 25.3877L18.3129 25.345C18.2814 25.3147 18.2498 25.2848 18.2178 25.2552L18.185 25.2253C18.0733 25.1224 17.9585 25.0221 17.8416 24.9259L17.8096 24.8993C17.7736 24.8694 17.7373 24.8398 17.7007 24.8106L17.6644 24.7814C17.6249 24.7515 17.589 24.7219 17.5507 24.6923L17.5313 24.6777C17.4023 24.5789 17.27 24.4828 17.1366 24.3903L17.118 24.3772C17.0758 24.3484 17.0336 24.32 16.9909 24.2919L16.9629 24.2736C16.9195 24.2447 16.8757 24.2167 16.8318 24.1886L16.8243 24.1841C16.6791 24.0921 16.531 24.0039 16.3802 23.9195L16.3743 23.9158C16.3266 23.8892 16.2788 23.8634 16.231 23.8376L16.2101 23.8263C15.9559 23.6904 15.6948 23.5656 15.4269 23.4521L15.4103 23.445C15.3397 23.415 15.2686 23.3862 15.1968 23.3578H16.6096C16.8397 23.3578 17.0265 23.1067 17.0265 22.7964C17.0265 22.4862 16.8397 22.2351 16.6096 22.2351H16.1888C16.2148 22.1722 16.2437 22.1011 16.2748 22.021C16.6728 21.786 17.373 21.2852 18.0678 20.3653L18.0733 20.3582C18.126 20.2894 18.1777 20.2181 18.2285 20.1445L18.2387 20.1299C18.2893 20.0577 18.3398 19.9832 18.3895 19.9054L18.4029 19.8848C18.4266 19.8474 18.4503 19.81 18.474 19.7725C18.474 19.7725 18.474 19.7695 18.4768 19.7677C18.5012 19.7302 18.5253 19.6891 18.5494 19.649L18.5648 19.6232C18.5853 19.5888 18.6062 19.5536 18.6264 19.5181C18.6303 19.5117 18.6343 19.5053 18.6378 19.4986C18.6611 19.4582 18.6844 19.417 18.7073 19.3755L18.7231 19.3466C18.742 19.3122 18.7606 19.2774 18.7791 19.2422C18.7847 19.2325 18.7902 19.2224 18.7953 19.2123C18.8174 19.17 18.8395 19.1273 18.8616 19.0839L18.877 19.0536C18.8944 19.0184 18.9122 18.9825 18.9295 18.9466L18.9485 18.9092C18.9698 18.865 18.9907 18.8201 19.0116 18.7748L19.0247 18.746C19.042 18.7086 19.059 18.6711 19.076 18.6337L19.0961 18.5888C19.1159 18.5435 19.1356 18.4979 19.1545 18.4518C19.1581 18.4436 19.1616 18.435 19.1648 18.4268C19.1826 18.3845 19.1999 18.3414 19.2173 18.298L19.237 18.2486C19.2532 18.2074 19.2694 18.1659 19.2852 18.1244L19.2971 18.0929C19.3156 18.0435 19.3338 17.993 19.3519 17.9432L19.3709 17.8901C19.3851 17.8504 19.3989 17.81 19.4127 17.7696C19.4178 17.7546 19.423 17.7396 19.4277 17.7247C19.4451 17.673 19.4625 17.6203 19.4794 17.5675C19.485 17.5492 19.4909 17.5301 19.4964 17.5128L19.5359 17.3897C19.541 17.3718 19.5465 17.3523 19.5517 17.3362C19.5678 17.2819 19.584 17.2266 19.5994 17.1708C19.6046 17.1532 19.6093 17.1352 19.614 17.1173C19.6259 17.0742 19.6377 17.0312 19.6492 16.9874C19.6543 16.9676 19.6594 16.9477 19.665 16.9279C19.6796 16.8703 19.6942 16.8123 19.7084 16.7535L19.7202 16.7045C19.7313 16.6577 19.7423 16.6105 19.753 16.563L19.7672 16.4994C19.7806 16.4384 19.794 16.3774 19.8067 16.3153C19.8094 16.3033 19.8118 16.2909 19.8142 16.2778C19.8252 16.2243 19.8359 16.1701 19.8461 16.1158C19.8505 16.0937 19.8544 16.0716 19.8588 16.0496C19.869 15.9938 19.8789 15.9373 19.8888 15.8815C19.8908 15.8695 19.8931 15.8579 19.8951 15.8463C19.9061 15.7805 19.9169 15.7141 19.9275 15.6472C19.931 15.6248 19.9346 15.6023 19.9377 15.5795C19.946 15.5252 19.9539 15.4706 19.9618 15.4152L19.9689 15.3643C19.9784 15.2955 19.9875 15.2262 19.9962 15.1559C19.9989 15.1338 20.0013 15.1117 20.004 15.0892C20.0109 15.0334 20.0172 14.9772 20.023 14.9208C20.0254 14.9006 20.0277 14.8808 20.0297 14.8606C20.0373 14.7882 20.0444 14.7153 20.051 14.6417C20.051 14.6211 20.0546 14.6005 20.0562 14.5795C20.0613 14.5204 20.0664 14.4609 20.0708 14.401C20.0708 14.3789 20.0743 14.3569 20.0759 14.3348C20.0814 14.2584 20.0865 14.1816 20.0913 14.1042C20.0913 14.0867 20.0913 14.0668 20.094 14.0511C20.0976 13.9867 20.1012 13.922 20.1039 13.8569C20.1039 13.8333 20.1039 13.8097 20.1071 13.7861C20.1102 13.7057 20.1134 13.6248 20.1158 13.5429C20.1158 13.5316 20.1158 13.52 20.1158 13.5084C20.1179 13.4356 20.1194 13.362 20.1205 13.2876C20.1205 13.2633 20.1205 13.239 20.1205 13.2147C20.1205 13.1348 20.1205 13.0545 20.1205 12.9737V12.9549C20.1205 12.8689 20.1205 12.7817 20.1205 12.693V12.6181C20.1205 12.5433 20.1173 12.4647 20.1154 12.3868V12.3445C20.1126 12.2547 20.1091 12.1638 20.1055 12.0725C20.1055 12.0489 20.1031 12.0249 20.1023 12.0014C20.0989 11.9245 20.095 11.8472 20.0905 11.7693C20.0905 11.7502 20.0905 11.7319 20.0873 11.7113C20.0818 11.6178 20.0758 11.5235 20.0692 11.4284L20.0644 11.3622C20.0585 11.2828 20.0526 11.2031 20.0459 11.1226C20.0459 11.0994 20.0423 11.0762 20.0404 11.053C20.0321 10.9557 20.023 10.8573 20.0135 10.7585C20.0135 10.7398 20.0096 10.7211 20.008 10.702C19.9997 10.6178 19.9906 10.5328 19.9815 10.4471C19.9788 10.4213 19.976 10.3959 19.9729 10.37C19.9618 10.2682 19.95 10.1661 19.9373 10.0624C19.9373 10.0497 19.9338 10.037 19.9322 10.025C19.9209 9.93217 19.9089 9.83886 19.8963 9.74505C19.8923 9.71736 19.8888 9.68966 19.8848 9.66197C19.8701 9.55569 19.855 9.44852 19.8394 9.34049C18.2604 -1.31572 7.07087 0.413656 7.07087 0.413656L7.4293 2.70328L0.662109 9.48083L0.957776 12.0979L3.52128 13.5949C3.63556 13.3195 3.78228 13.0573 3.95866 12.8131C5.61266 11.0044 8.82158 9.5845 9.74016 9.28997C9.92412 9.23121 10.0287 9.20165 10.0287 9.20165C5.63477 14.593 6.13452 20.7695 6.33032 22.2418C6.12663 22.2792 5.96912 22.5124 5.96912 22.7968C5.96912 23.1067 6.15584 23.3582 6.38598 23.3582H7.79879C5.4491 24.2906 3.58396 26.0665 2.61059 28.2982C2.60945 28.3012 2.60813 28.3042 2.60665 28.3072C2.5348 28.4728 2.46796 28.6409 2.40611 28.8113C2.40622 28.813 2.40622 28.8148 2.40611 28.8165C2.38954 28.8629 2.37335 28.9093 2.35756 28.9561C2.35164 28.9729 2.34572 28.9898 2.34019 29.007C2.32598 29.0489 2.31282 29.0912 2.30071 29.1339C2.29361 29.1556 2.2869 29.1777 2.28019 29.1994C2.26756 29.2394 2.25532 29.2798 2.24348 29.3202L2.22216 29.3951C2.21111 29.4325 2.20006 29.4726 2.18979 29.5115C2.18229 29.5392 2.17519 29.5665 2.16808 29.5942C2.15861 29.6316 2.14874 29.669 2.13966 29.7065C2.13058 29.7439 2.12189 29.7813 2.11321 29.821C2.10452 29.8606 2.09347 29.9071 2.084 29.9505H1.52069C1.41237 29.9482 1.30466 29.9665 1.20389 30.0042C1.10312 30.0419 1.01131 30.0984 0.933856 30.1702C0.856403 30.242 0.79486 30.3278 0.752846 30.4225C0.710832 30.5172 0.689191 30.6189 0.689191 30.7216C0.689191 30.8243 0.710832 30.926 0.752846 31.0207C0.79486 31.1154 0.856403 31.2011 0.933856 31.273C1.01131 31.3448 1.10312 31.4012 1.20389 31.439C1.30466 31.4767 1.41237 31.495 1.52069 31.4927H21.4855C21.5939 31.495 21.7016 31.4767 21.8023 31.439C21.9031 31.4012 21.9949 31.3448 22.0724 31.273C22.1498 31.2011 22.2114 31.1154 22.2534 31.0207C22.2954 30.926 22.317 30.8243 22.317 30.7216C22.317 30.6189 22.2954 30.5172 22.2534 30.4225C22.2114 30.3278 22.1498 30.242 22.0724 30.1702C21.9949 30.0984 21.9031 30.0419 21.8023 30.0042C21.7016 29.9665 21.5939 29.9482 21.4855 29.9505L21.4784 29.9437Z" fill="#595653"/>
</svg>
